<svg width="142" height="167" viewBox="0 0 142 167" fill="none" xmlns="http://www.w3.org/2000/svg">
<g filter="url(#filter0_dd_3_98)">
<ellipse cx="74.4437" cy="124.973" rx="8.139" ry="7.51068" fill="url(#paint0_linear_3_98)" shape-rendering="crispEdges"/>
</g>
<g filter="url(#filter1_dd_3_98)">
<ellipse cx="99.2645" cy="101.002" rx="6.02131" ry="5.55648" fill="url(#paint1_linear_3_98)" shape-rendering="crispEdges"/>
</g>
<ellipse cx="61.7526" cy="56.389" rx="61.1064" ry="56.389" fill="url(#paint2_radial_3_98)" fill-opacity="0.6"/>
<g filter="url(#filter2_d_3_98)">
<ellipse cx="74.3219" cy="69.0385" rx="36.6119" ry="21.1657" fill="url(#paint3_linear_3_98)" fill-opacity="0.5" shape-rendering="crispEdges"/>
<path d="M110.416 69.0385C110.416 74.6204 106.498 79.7719 99.9514 83.5568C93.4179 87.3339 84.3576 89.6866 74.3219 89.6866C64.2862 89.6866 55.2259 87.3339 48.6924 83.5568C42.1453 79.7719 38.2275 74.6204 38.2275 69.0385C38.2275 63.4566 42.1453 58.305 48.6924 54.5201C55.2259 50.7431 64.2862 48.3903 74.3219 48.3903C84.3576 48.3903 93.4179 50.7431 99.9514 54.5201C106.498 58.305 110.416 63.4566 110.416 69.0385Z" stroke="url(#paint4_linear_3_98)" stroke-opacity="0.6" stroke-width="1.03515" shape-rendering="crispEdges"/>
</g>
<ellipse cx="74.3213" cy="49.3024" rx="46.448" ry="42.8623" fill="url(#paint5_radial_3_98)"/>
<ellipse cx="74.3211" cy="56.3892" rx="45.4107" ry="24.5153" fill="url(#paint6_linear_3_98)" fill-opacity="0.5"/>
<path d="M119.214 56.3892C119.214 62.8779 114.335 68.8692 106.186 73.2686C98.0571 77.6568 86.7923 80.3869 74.3211 80.3869C61.85 80.3869 50.5852 77.6568 42.4568 73.2686C34.3076 68.8692 29.428 62.8779 29.428 56.3892C29.428 49.9004 34.3076 43.9091 42.4568 39.5097C50.5852 35.1215 61.85 32.3914 74.3211 32.3914C86.7923 32.3914 98.0571 35.1215 106.186 39.5097C114.335 43.9091 119.214 49.9004 119.214 56.3892Z" stroke="url(#paint7_linear_3_98)" stroke-opacity="0.6" stroke-width="1.03515"/>
<ellipse cx="74.3212" cy="49.3022" rx="34.405" ry="31.749" fill="url(#paint8_radial_3_98)"/>
<ellipse cx="74.3212" cy="49.3022" rx="34.405" ry="31.749" fill="url(#paint9_radial_3_98)"/>
<g filter="url(#filter3_d_3_98)">
<ellipse cx="74.3214" cy="41.169" rx="44.9488" ry="23.9484" fill="url(#paint10_linear_3_98)" fill-opacity="0.5" shape-rendering="crispEdges"/>
<path d="M118.753 41.169C118.753 47.4977 113.929 53.3479 105.862 57.6463C97.8163 61.9328 86.666 64.5998 74.3214 64.5998C61.9768 64.5998 50.8265 61.9328 42.7811 57.6463C34.7134 53.3479 29.8901 47.4977 29.8901 41.169C29.8901 34.8404 34.7134 28.9902 42.7811 24.6918C50.8265 20.4053 61.9768 17.7382 74.3214 17.7382C86.666 17.7382 97.8163 20.4053 105.862 24.6918C113.929 28.9902 118.753 34.8404 118.753 41.169Z" stroke="url(#paint11_linear_3_98)" stroke-opacity="0.6" stroke-width="1.03515" shape-rendering="crispEdges"/>
</g>
<g filter="url(#filter4_d_3_98)">
<ellipse cx="74.3211" cy="28.8025" rx="34.879" ry="20.8044" fill="url(#paint12_linear_3_98)" fill-opacity="0.5" shape-rendering="crispEdges"/>
<path d="M108.683 28.8025C108.683 34.2928 104.949 39.3532 98.7192 43.069C92.5004 46.7783 83.8756 49.0894 74.3211 49.0894C64.7667 49.0894 56.1419 46.7783 49.9231 43.069C43.6935 39.3532 39.9597 34.2928 39.9597 28.8025C39.9597 23.3123 43.6935 18.2519 49.9231 14.5361C56.1419 10.8267 64.7667 8.51565 74.3211 8.51565C83.8756 8.51565 92.5004 10.8267 98.7192 14.5361C104.949 18.2519 108.683 23.3123 108.683 28.8025Z" stroke="url(#paint13_linear_3_98)" stroke-opacity="0.6" stroke-width="1.03515" shape-rendering="crispEdges"/>
</g>
<ellipse cx="74.3219" cy="21.5765" rx="21.7096" ry="13.5784" fill="url(#paint14_linear_3_98)" fill-opacity="0.5"/>
<path d="M95.5138 21.5765C95.5138 25.0834 93.2398 28.3364 89.3984 30.7391C85.5642 33.1372 80.2352 34.6373 74.3219 34.6373C68.4085 34.6373 63.0795 33.1372 59.2453 30.7391C55.404 28.3364 53.1299 25.0834 53.1299 21.5765C53.1299 18.0696 55.404 14.8165 59.2453 12.4139C63.0795 10.0158 68.4085 8.51565 74.3219 8.51565C80.2352 8.51565 85.5642 10.0158 89.3984 12.4139C93.2398 14.8165 95.5138 18.0696 95.5138 21.5765Z" stroke="url(#paint15_linear_3_98)" stroke-opacity="0.6" stroke-width="1.03515"/>
<ellipse cx="74.3215" cy="16.9411" rx="12.5688" ry="7.9805" fill="url(#paint16_linear_3_98)" fill-opacity="0.5"/>
<path d="M86.3727 16.9411C86.3727 18.906 85.1174 20.7594 82.9315 22.1473C80.752 23.5312 77.7092 24.4041 74.3215 24.4041C70.9337 24.4041 67.891 23.5312 65.7114 22.1473C63.5256 20.7594 62.2703 18.906 62.2703 16.9411C62.2703 14.9763 63.5256 13.1229 65.7114 11.735C67.891 10.3511 70.9337 9.47821 74.3215 9.47821C77.7092 9.47821 80.752 10.3511 82.9315 11.735C85.1174 13.1229 86.3727 14.9763 86.3727 16.9411Z" stroke="url(#paint17_linear_3_98)" stroke-opacity="0.6" stroke-width="1.03515"/>
<circle cx="75.5" cy="53.5" r="47.5" fill="url(#paint18_radial_3_98)" fill-opacity="0.3"/>
<defs>
<filter id="filter0_dd_3_98" x="30.0743" y="79.1618" width="88.7389" height="87.4822" filterUnits="userSpaceOnUse" color-interpolation-filters="sRGB">
<feFlood flood-opacity="0" result="BackgroundImageFix"/>
<feColorMatrix in="SourceAlpha" type="matrix" values="0 0 0 0 0 0 0 0 0 0 0 0 0 0 0 0 0 0 127 0" result="hardAlpha"/>
<feOffset dy="-2.07031"/>
<feGaussianBlur stdDeviation="18.1152"/>
<feComposite in2="hardAlpha" operator="out"/>
<feColorMatrix type="matrix" values="0 0 0 0 0.371081 0 0 0 0 0.235903 0 0 0 0 0.658333 0 0 0 1 0"/>
<feBlend mode="normal" in2="BackgroundImageFix" result="effect1_dropShadow_3_98"/>
<feColorMatrix in="SourceAlpha" type="matrix" values="0 0 0 0 0 0 0 0 0 0 0 0 0 0 0 0 0 0 127 0" result="hardAlpha"/>
<feOffset dy="-2.07031"/>
<feGaussianBlur stdDeviation="10.3515"/>
<feComposite in2="hardAlpha" operator="out"/>
<feColorMatrix type="matrix" values="0 0 0 0 0.48825 0 0 0 0 0.372778 0 0 0 0 0.733333 0 0 0 1 0"/>
<feBlend mode="normal" in2="effect1_dropShadow_3_98" result="effect2_dropShadow_3_98"/>
<feBlend mode="normal" in="SourceGraphic" in2="effect2_dropShadow_3_98" result="shape"/>
</filter>
<filter id="filter1_dd_3_98" x="57.0128" y="57.1445" width="84.5035" height="83.5738" filterUnits="userSpaceOnUse" color-interpolation-filters="sRGB">
<feFlood flood-opacity="0" result="BackgroundImageFix"/>
<feColorMatrix in="SourceAlpha" type="matrix" values="0 0 0 0 0 0 0 0 0 0 0 0 0 0 0 0 0 0 127 0" result="hardAlpha"/>
<feOffset dy="-2.07031"/>
<feGaussianBlur stdDeviation="18.1152"/>
<feComposite in2="hardAlpha" operator="out"/>
<feColorMatrix type="matrix" values="0 0 0 0 0.371081 0 0 0 0 0.235903 0 0 0 0 0.658333 0 0 0 1 0"/>
<feBlend mode="normal" in2="BackgroundImageFix" result="effect1_dropShadow_3_98"/>
<feColorMatrix in="SourceAlpha" type="matrix" values="0 0 0 0 0 0 0 0 0 0 0 0 0 0 0 0 0 0 127 0" result="hardAlpha"/>
<feOffset dy="-2.07031"/>
<feGaussianBlur stdDeviation="10.3515"/>
<feComposite in2="hardAlpha" operator="out"/>
<feColorMatrix type="matrix" values="0 0 0 0 0.48825 0 0 0 0 0.372778 0 0 0 0 0.733333 0 0 0 1 0"/>
<feBlend mode="normal" in2="effect1_dropShadow_3_98" result="effect2_dropShadow_3_98"/>
<feBlend mode="normal" in="SourceGraphic" in2="effect2_dropShadow_3_98" result="shape"/>
</filter>
<filter id="filter2_d_3_98" x="27.3584" y="38.5564" width="93.927" height="63.0345" filterUnits="userSpaceOnUse" color-interpolation-filters="sRGB">
<feFlood flood-opacity="0" result="BackgroundImageFix"/>
<feColorMatrix in="SourceAlpha" type="matrix" values="0 0 0 0 0 0 0 0 0 0 0 0 0 0 0 0 0 0 127 0" result="hardAlpha"/>
<feOffset dy="1.03515"/>
<feGaussianBlur stdDeviation="5.17577"/>
<feComposite in2="hardAlpha" operator="out"/>
<feColorMatrix type="matrix" values="0 0 0 0 0.440043 0 0 0 0 0.20092 0 0 0 0 0.679167 0 0 0 0.3 0"/>
<feBlend mode="normal" in2="BackgroundImageFix" result="effect1_dropShadow_3_98"/>
<feBlend mode="normal" in="SourceGraphic" in2="effect1_dropShadow_3_98" result="shape"/>
</filter>
<filter id="filter3_d_3_98" x="24.1968" y="13.0801" width="100.249" height="58.2483" filterUnits="userSpaceOnUse" color-interpolation-filters="sRGB">
<feFlood flood-opacity="0" result="BackgroundImageFix"/>
<feColorMatrix in="SourceAlpha" type="matrix" values="0 0 0 0 0 0 0 0 0 0 0 0 0 0 0 0 0 0 127 0" result="hardAlpha"/>
<feOffset dy="1.03515"/>
<feGaussianBlur stdDeviation="2.58789"/>
<feComposite in2="hardAlpha" operator="out"/>
<feColorMatrix type="matrix" values="0 0 0 0 0.369333 0 0 0 0 0.0916667 0 0 0 0 0.5 0 0 0 0.15 0"/>
<feBlend mode="normal" in2="BackgroundImageFix" result="effect1_dropShadow_3_98"/>
<feBlend mode="normal" in="SourceGraphic" in2="effect1_dropShadow_3_98" result="shape"/>
</filter>
<filter id="filter4_d_3_98" x="32.7136" y="1.26957" width="85.2854" height="57.1362" filterUnits="userSpaceOnUse" color-interpolation-filters="sRGB">
<feFlood flood-opacity="0" result="BackgroundImageFix"/>
<feColorMatrix in="SourceAlpha" type="matrix" values="0 0 0 0 0 0 0 0 0 0 0 0 0 0 0 0 0 0 127 0" result="hardAlpha"/>
<feOffset dx="1.03515" dy="1.03515"/>
<feGaussianBlur stdDeviation="3.88183"/>
<feComposite in2="hardAlpha" operator="out"/>
<feColorMatrix type="matrix" values="0 0 0 0 0.440043 0 0 0 0 0.20092 0 0 0 0 0.679167 0 0 0 0.2 0"/>
<feBlend mode="normal" in2="BackgroundImageFix" result="effect1_dropShadow_3_98"/>
<feBlend mode="normal" in="SourceGraphic" in2="effect1_dropShadow_3_98" result="shape"/>
</filter>
<linearGradient id="paint0_linear_3_98" x1="74.4437" y1="114.197" x2="74.4437" y2="140.539" gradientUnits="userSpaceOnUse">
<stop stop-color="white"/>
<stop offset="0.223958" stop-color="#6BE4FF"/>
<stop offset="0.623188" stop-color="#371B73" stop-opacity="0.6"/>
<stop offset="1" stop-color="#0A1153" stop-opacity="0.4"/>
</linearGradient>
<linearGradient id="paint1_linear_3_98" x1="99.2645" y1="93.0294" x2="99.2645" y2="112.517" gradientUnits="userSpaceOnUse">
<stop stop-color="white"/>
<stop offset="0.223958" stop-color="#6BE4FF"/>
<stop offset="0.623188" stop-color="#371B73" stop-opacity="0.6"/>
<stop offset="1" stop-color="#0A1153" stop-opacity="0.4"/>
</linearGradient>
<radialGradient id="paint2_radial_3_98" cx="0" cy="0" r="1" gradientUnits="userSpaceOnUse" gradientTransform="translate(61.7526 56.389) rotate(90) scale(56.389 61.1064)">
<stop stop-color="#FF65C1"/>
<stop offset="1" stop-color="#FF65C1" stop-opacity="0"/>
</radialGradient>
<linearGradient id="paint3_linear_3_98" x1="74.3219" y1="47.8728" x2="74.3219" y2="90.2042" gradientUnits="userSpaceOnUse">
<stop stop-color="#13154D"/>
<stop offset="1" stop-color="#8E92EE" stop-opacity="0"/>
</linearGradient>
<linearGradient id="paint4_linear_3_98" x1="92.5056" y1="71.7069" x2="94.2723" y2="93.0849" gradientUnits="userSpaceOnUse">
<stop stop-color="white" stop-opacity="0"/>
<stop offset="1" stop-color="white"/>
</linearGradient>
<radialGradient id="paint5_radial_3_98" cx="0" cy="0" r="1" gradientUnits="userSpaceOnUse" gradientTransform="translate(27.8733 64.8945) rotate(-18.2501) scale(97.8163 91.8082)">
<stop offset="0.249306" stop-color="white"/>
<stop offset="0.48315" stop-color="#FF8FED" stop-opacity="0.5"/>
<stop offset="0.627037" stop-color="#220C7A" stop-opacity="0.5"/>
</radialGradient>
<linearGradient id="paint6_linear_3_98" x1="32.6162" y1="61.5994" x2="118.498" y2="51.0949" gradientUnits="userSpaceOnUse">
<stop stop-color="white"/>
<stop offset="1" stop-color="#12178E" stop-opacity="0.4"/>
</linearGradient>
<linearGradient id="paint7_linear_3_98" x1="81.5312" y1="91.2943" x2="69.5655" y2="60.3588" gradientUnits="userSpaceOnUse">
<stop offset="0.0011346" stop-color="white"/>
<stop offset="1" stop-color="white" stop-opacity="0"/>
</linearGradient>
<radialGradient id="paint8_radial_3_98" cx="0" cy="0" r="1" gradientUnits="userSpaceOnUse" gradientTransform="translate(48.2991 65.4243) rotate(-13.7482) scale(67.838 63.2173)">
<stop offset="0.239373" stop-color="white"/>
<stop offset="0.410099" stop-color="#FFCEF1"/>
<stop offset="0.67492" stop-color="#B6B9FF"/>
<stop offset="0.861176" stop-color="#FFA8E7"/>
<stop offset="1" stop-color="white"/>
</radialGradient>
<radialGradient id="paint9_radial_3_98" cx="0" cy="0" r="1" gradientUnits="userSpaceOnUse" gradientTransform="translate(106.916 73.8426) rotate(-123.818) scale(37.034 38.2869)">
<stop stop-color="#3F52FF"/>
<stop offset="1" stop-color="#3F52FF" stop-opacity="0"/>
</radialGradient>
<linearGradient id="paint10_linear_3_98" x1="30.3405" y1="39.5184" x2="119.255" y2="42.5119" gradientUnits="userSpaceOnUse">
<stop stop-color="white"/>
<stop offset="1" stop-color="#5653FF" stop-opacity="0.2"/>
</linearGradient>
<linearGradient id="paint11_linear_3_98" x1="68.4022" y1="82.0259" x2="66.021" y2="42.9362" gradientUnits="userSpaceOnUse">
<stop stop-color="white"/>
<stop offset="1" stop-color="white" stop-opacity="0"/>
</linearGradient>
<linearGradient id="paint12_linear_3_98" x1="74.3211" y1="7.99808" x2="74.3211" y2="49.607" gradientUnits="userSpaceOnUse">
<stop stop-color="#13154D" stop-opacity="0.5"/>
<stop offset="1" stop-color="#8E92EE" stop-opacity="0"/>
</linearGradient>
<linearGradient id="paint13_linear_3_98" x1="80.4174" y1="58.6404" x2="84.3619" y2="12.5715" gradientUnits="userSpaceOnUse">
<stop stop-color="#F9E5E5"/>
<stop offset="1" stop-color="white" stop-opacity="0"/>
</linearGradient>
<linearGradient id="paint14_linear_3_98" x1="74.3219" y1="7.99808" x2="74.3219" y2="35.1549" gradientUnits="userSpaceOnUse">
<stop stop-color="#13154D"/>
<stop offset="1" stop-color="#8E92EE" stop-opacity="0"/>
</linearGradient>
<linearGradient id="paint15_linear_3_98" x1="83.0079" y1="55.1347" x2="75.5802" y2="7.80061" gradientUnits="userSpaceOnUse">
<stop stop-color="white"/>
<stop offset="1" stop-color="white" stop-opacity="0"/>
</linearGradient>
<linearGradient id="paint16_linear_3_98" x1="74.3215" y1="8.96063" x2="74.3215" y2="24.9216" gradientUnits="userSpaceOnUse">
<stop stop-color="#13154D"/>
<stop offset="1" stop-color="#8E92EE" stop-opacity="0"/>
</linearGradient>
<linearGradient id="paint17_linear_3_98" x1="81.1082" y1="41.7495" x2="75.2985" y2="8.78842" gradientUnits="userSpaceOnUse">
<stop stop-color="white"/>
<stop offset="1" stop-color="white" stop-opacity="0"/>
</linearGradient>
<radialGradient id="paint18_radial_3_98" cx="0" cy="0" r="1" gradientUnits="userSpaceOnUse" gradientTransform="translate(28 70.7792) rotate(-19.6638) scale(100.883)">
<stop offset="0.249306" stop-color="white"/>
<stop offset="0.48315" stop-color="#FF8FED" stop-opacity="0.5"/>
<stop offset="0.627037" stop-color="#220C7A" stop-opacity="0"/>
</radialGradient>
</defs>
</svg>
