<svg width="226" height="340" viewBox="0 0 226 340" fill="none" xmlns="http://www.w3.org/2000/svg">
<g filter="url(#filter0_f_5_7)">
<ellipse cx="190.666" cy="169.571" rx="96.3547" ry="63.8449" transform="rotate(-24.5849 190.666 169.571)" fill="#C982DA"/>
</g>
<mask id="mask0_5_7" style="mask-type:alpha" maskUnits="userSpaceOnUse" x="18" y="129" width="180" height="174">
<rect x="134.188" y="129.013" width="118.418" height="137.327" transform="rotate(57.5313 134.188 129.013)" fill="url(#paint0_linear_5_7)"/>
</mask>
<g mask="url(#mask0_5_7)">
<g opacity="0.8">
<path d="M160.778 186.017L162.957 219.31L150.665 243.71L74.3675 267.341L73.3997 241.616L160.778 186.017Z" fill="url(#paint1_linear_5_7)"/>
<path opacity="0.8" d="M160.777 186.017L115.877 214.587L142.731 228.129L162.956 219.31L160.777 186.017Z" fill="url(#paint2_linear_5_7)" fill-opacity="0.7"/>
<g opacity="0.8">
<path d="M160.777 186.017L131.536 169.937L104.233 170.738L50.506 229.842L73.3992 241.616L160.777 186.017Z" fill="url(#paint3_linear_5_7)" fill-opacity="0.7"/>
<path d="M160.777 186.017L131.536 169.937L104.233 170.738L50.506 229.842L73.3992 241.616L160.777 186.017Z" fill="url(#paint4_linear_5_7)" fill-opacity="0.5"/>
</g>
<path d="M74.3681 267.342L73.3995 241.616L51.4745 255.567L74.3681 267.342Z" fill="url(#paint5_linear_5_7)"/>
<path d="M126.254 207.985L125.613 190.951L140.771 198.748L141.413 215.782L126.254 207.985Z" fill="url(#paint6_linear_5_7)" fill-opacity="0.5"/>
<path d="M50.5058 229.841L51.4744 255.567L73.3993 241.616L50.5058 229.841Z" fill="url(#paint7_linear_5_7)" fill-opacity="0.8"/>
<path d="M56.0948 252.627L55.5753 238.829L67.8544 245.145L68.3739 258.943L56.0948 252.627Z" fill="url(#paint8_linear_5_7)" fill-opacity="0.6"/>
<path opacity="0.8" d="M160.778 186.017L115.877 214.587L114.986 184.525L131.542 169.94L160.778 186.017Z" fill="url(#paint9_linear_5_7)"/>
<path d="M104.233 170.738L131.542 169.94L114.986 184.525L104.233 170.738Z" fill="url(#paint10_linear_5_7)" fill-opacity="0.7"/>
<path d="M109.149 218.869L108.105 191.146L132.775 203.835L133.819 231.558L109.149 218.869Z" fill="url(#paint11_linear_5_7)" fill-opacity="0.7"/>
<path d="M109.149 218.869L108.105 191.146L132.775 203.835L133.819 231.558L109.149 218.869Z" fill="url(#paint12_linear_5_7)" fill-opacity="0.7"/>
<path d="M132.775 203.836L108.105 191.147L125.614 190.951L140.772 198.748L132.775 203.836Z" fill="url(#paint13_linear_5_7)" fill-opacity="0.9"/>
<path d="M132.778 203.834L133.822 231.556L68.3739 258.942L67.8548 245.144L132.778 203.834Z" fill="url(#paint14_linear_5_7)" fill-opacity="0.6"/>
<path d="M132.778 203.833L108.108 191.144L55.5756 238.829L67.8545 245.144L132.778 203.833Z" fill="url(#paint15_linear_5_7)" fill-opacity="0.9"/>
<path d="M132.775 203.836L133.819 231.558L141.413 215.781L140.772 198.748L132.775 203.836Z" fill="url(#paint16_linear_5_7)" fill-opacity="0.9"/>
<path d="M150.665 243.71L162.956 219.31L142.731 228.129L150.665 243.71Z" fill="url(#paint17_linear_5_7)" fill-opacity="0.7"/>
</g>
</g>
<g filter="url(#filter1_f_5_7)">
<ellipse cx="149.687" cy="193.074" rx="81.6041" ry="36.0266" transform="rotate(57.5313 149.687 193.074)" fill="url(#paint18_radial_5_7)" fill-opacity="0.6"/>
</g>
<g filter="url(#filter2_f_5_7)">
<ellipse cx="149.687" cy="193.074" rx="57.9642" ry="25.5901" transform="rotate(57.5313 149.687 193.074)" fill="url(#paint19_radial_5_7)" fill-opacity="0.6"/>
</g>
<path d="M174.724 177.142L176.575 226.307L132.823 203.804L130.972 154.638L174.724 177.142Z" fill="url(#paint20_linear_5_7)" fill-opacity="0.5"/>
<path d="M146.753 194.941L144.574 161.647L156.865 137.248L233.163 113.616L234.131 139.342L146.753 194.941Z" fill="url(#paint21_linear_5_7)"/>
<path opacity="0.8" d="M146.753 194.941L191.653 166.37L164.799 152.829L144.574 161.648L146.753 194.941Z" fill="url(#paint22_linear_5_7)" fill-opacity="0.7"/>
<g opacity="0.8">
<path d="M146.754 194.941L175.994 211.02L203.298 210.22L257.024 151.116L234.131 139.342L146.754 194.941Z" fill="url(#paint23_linear_5_7)" fill-opacity="0.7"/>
<path d="M146.754 194.941L175.994 211.02L203.298 210.22L257.024 151.116L234.131 139.342L146.754 194.941Z" fill="url(#paint24_linear_5_7)" fill-opacity="0.5"/>
</g>
<path d="M181.277 172.973L181.918 190.007L166.759 182.21L166.118 165.176L181.277 172.973Z" fill="url(#paint25_linear_5_7)" fill-opacity="0.5"/>
<path opacity="0.8" d="M146.753 194.941L191.653 166.371L192.545 196.433L175.988 211.018L146.753 194.941Z" fill="url(#paint26_linear_5_7)"/>
<path d="M203.298 210.22L175.988 211.018L192.545 196.433L203.298 210.22Z" fill="url(#paint27_linear_5_7)" fill-opacity="0.7"/>
<path d="M198.382 162.089L199.426 189.812L174.755 177.122L173.711 149.399L198.382 162.089Z" fill="url(#paint28_linear_5_7)" fill-opacity="0.7"/>
<path d="M198.382 162.089L199.426 189.812L174.755 177.122L173.711 149.399L198.382 162.089Z" fill="url(#paint29_linear_5_7)" fill-opacity="0.7"/>
<path d="M174.756 177.122L199.425 189.811L181.917 190.007L166.759 182.21L174.756 177.122Z" fill="url(#paint30_linear_5_7)" fill-opacity="0.9"/>
<path d="M174.752 177.124L173.708 149.402L239.157 122.015L239.676 135.813L174.752 177.124Z" fill="url(#paint31_linear_5_7)" fill-opacity="0.6"/>
<path d="M174.753 177.124L199.423 189.813L251.955 142.129L239.676 135.813L174.753 177.124Z" fill="url(#paint32_linear_5_7)" fill-opacity="0.9"/>
<path d="M174.756 177.122L173.711 149.4L166.117 165.176L166.759 182.21L174.756 177.122Z" fill="url(#paint33_linear_5_7)" fill-opacity="0.9"/>
<path d="M156.866 137.248L144.574 161.648L164.799 152.829L156.866 137.248Z" fill="url(#paint34_linear_5_7)" fill-opacity="0.7"/>
<defs>
<filter id="filter0_f_5_7" x="0.0842285" y="0.0116892" width="381.163" height="339.118" filterUnits="userSpaceOnUse" color-interpolation-filters="sRGB">
<feFlood flood-opacity="0" result="BackgroundImageFix"/>
<feBlend mode="normal" in="SourceGraphic" in2="BackgroundImageFix" result="shape"/>
<feGaussianBlur stdDeviation="49.5" result="effect1_foregroundBlur_5_7"/>
</filter>
<filter id="filter1_f_5_7" x="80.8347" y="106.016" width="137.704" height="174.117" filterUnits="userSpaceOnUse" color-interpolation-filters="sRGB">
<feFlood flood-opacity="0" result="BackgroundImageFix"/>
<feBlend mode="normal" in="SourceGraphic" in2="BackgroundImageFix" result="shape"/>
<feGaussianBlur stdDeviation="7.76366" result="effect1_foregroundBlur_5_7"/>
</filter>
<filter id="filter2_f_5_7" x="96.2825" y="126.738" width="106.809" height="132.673" filterUnits="userSpaceOnUse" color-interpolation-filters="sRGB">
<feFlood flood-opacity="0" result="BackgroundImageFix"/>
<feBlend mode="normal" in="SourceGraphic" in2="BackgroundImageFix" result="shape"/>
<feGaussianBlur stdDeviation="7.76366" result="effect1_foregroundBlur_5_7"/>
</filter>
<linearGradient id="paint0_linear_5_7" x1="193.396" y1="74.7685" x2="193.396" y2="223.208" gradientUnits="userSpaceOnUse">
<stop/>
<stop offset="1" stop-opacity="0"/>
</linearGradient>
<linearGradient id="paint1_linear_5_7" x1="9.85953" y1="181.153" x2="79.9439" y2="129.004" gradientUnits="userSpaceOnUse">
<stop stop-color="#3D79ED"/>
<stop offset="0.265625" stop-color="#3458C1" stop-opacity="0.7"/>
<stop offset="0.618879" stop-color="#3753B8" stop-opacity="0.7"/>
<stop offset="0.895833" stop-color="#5BB0FF" stop-opacity="0.9"/>
<stop offset="1" stop-color="#5BB0FF" stop-opacity="0.6"/>
</linearGradient>
<linearGradient id="paint2_linear_5_7" x1="156.71" y1="192.707" x2="136.571" y2="223.686" gradientUnits="userSpaceOnUse">
<stop offset="0.046875" stop-color="white"/>
<stop offset="0.427083" stop-color="#DFF4FF"/>
<stop offset="0.994792" stop-color="#0E42C8"/>
</linearGradient>
<linearGradient id="paint3_linear_5_7" x1="140.27" y1="147.807" x2="135.225" y2="210.863" gradientUnits="userSpaceOnUse">
<stop offset="0.280479" stop-color="white"/>
<stop offset="0.469567" stop-color="#FF79DA"/>
<stop offset="0.692708" stop-color="#3D3AE3" stop-opacity="0.9"/>
</linearGradient>
<linearGradient id="paint4_linear_5_7" x1="135.713" y1="150.707" x2="122.497" y2="218.42" gradientUnits="userSpaceOnUse">
<stop offset="0.161458" stop-color="white"/>
<stop offset="1" stop-color="white" stop-opacity="0"/>
</linearGradient>
<linearGradient id="paint5_linear_5_7" x1="51.8095" y1="255.289" x2="74.3871" y2="254.975" gradientUnits="userSpaceOnUse">
<stop stop-color="#1AD6FF"/>
<stop offset="1" stop-color="#496BE4" stop-opacity="0.6"/>
<stop offset="1" stop-color="#1F3CA3"/>
</linearGradient>
<linearGradient id="paint6_linear_5_7" x1="133.073" y1="193.635" x2="139.946" y2="213.292" gradientUnits="userSpaceOnUse">
<stop stop-color="#81FF6C"/>
<stop offset="1" stop-color="#31F3FF"/>
</linearGradient>
<linearGradient id="paint7_linear_5_7" x1="49.3816" y1="230.556" x2="59.1137" y2="249.479" gradientUnits="userSpaceOnUse">
<stop stop-color="#FF79C9"/>
<stop offset="1" stop-color="#1F3CA3"/>
</linearGradient>
<linearGradient id="paint8_linear_5_7" x1="58.189" y1="239.897" x2="64.3917" y2="252.62" gradientUnits="userSpaceOnUse">
<stop stop-color="#52FF6E"/>
<stop offset="1" stop-color="#31FFFF"/>
</linearGradient>
<linearGradient id="paint9_linear_5_7" x1="141.018" y1="170.693" x2="113.938" y2="201.159" gradientUnits="userSpaceOnUse">
<stop offset="0.103809" stop-color="white"/>
<stop offset="0.436548" stop-color="#FFAACE" stop-opacity="0.8"/>
<stop offset="0.71875" stop-color="#6F97FF" stop-opacity="0.8"/>
</linearGradient>
<linearGradient id="paint10_linear_5_7" x1="123.596" y1="168.732" x2="113.723" y2="185.508" gradientUnits="userSpaceOnUse">
<stop stop-color="white"/>
<stop offset="0.591466" stop-color="#FF94D4"/>
<stop offset="1" stop-color="#C994FF"/>
</linearGradient>
<linearGradient id="paint11_linear_5_7" x1="120.247" y1="195.514" x2="131.431" y2="227.506" gradientUnits="userSpaceOnUse">
<stop stop-color="#81FF6C"/>
<stop offset="1" stop-color="#31F3FF"/>
</linearGradient>
<linearGradient id="paint12_linear_5_7" x1="131.927" y1="204.375" x2="108.609" y2="219.212" gradientUnits="userSpaceOnUse">
<stop stop-color="white"/>
<stop offset="1" stop-color="white" stop-opacity="0"/>
</linearGradient>
<linearGradient id="paint13_linear_5_7" x1="107.478" y1="190.161" x2="139.415" y2="199.175" gradientUnits="userSpaceOnUse">
<stop offset="0.149863" stop-color="white"/>
<stop offset="0.300261" stop-color="#8CFF31"/>
<stop offset="0.449118" stop-color="#45C3EB"/>
<stop offset="1" stop-color="#72E6FF"/>
</linearGradient>
<linearGradient id="paint14_linear_5_7" x1="138.519" y1="212.855" x2="136.684" y2="259.372" gradientUnits="userSpaceOnUse">
<stop stop-color="#6CFFED"/>
<stop offset="1" stop-color="#197F9F"/>
</linearGradient>
<linearGradient id="paint15_linear_5_7" x1="61.3002" y1="150.109" x2="47.775" y2="206.283" gradientUnits="userSpaceOnUse">
<stop offset="0.464598" stop-color="white"/>
<stop offset="0.790313" stop-color="#6DF390"/>
<stop offset="1" stop-color="#21CAFF" stop-opacity="0.9"/>
</linearGradient>
<linearGradient id="paint16_linear_5_7" x1="133.819" y1="231.558" x2="139.792" y2="199.805" gradientUnits="userSpaceOnUse">
<stop offset="0.125" stop-color="white"/>
<stop offset="0.297772" stop-color="#8CFF31"/>
<stop offset="0.447917" stop-color="#5BF5FF"/>
</linearGradient>
<linearGradient id="paint17_linear_5_7" x1="164.074" y1="217.519" x2="144.526" y2="234.044" gradientUnits="userSpaceOnUse">
<stop stop-color="#DFF4FF"/>
<stop offset="0.994792" stop-color="#0E42C8"/>
</linearGradient>
<radialGradient id="paint18_radial_5_7" cx="0" cy="0" r="1" gradientUnits="userSpaceOnUse" gradientTransform="translate(149.687 193.074) rotate(90) scale(36.0266 81.6041)">
<stop stop-color="#739AFF"/>
<stop offset="1" stop-color="#6978FF" stop-opacity="0"/>
</radialGradient>
<radialGradient id="paint19_radial_5_7" cx="0" cy="0" r="1" gradientUnits="userSpaceOnUse" gradientTransform="translate(149.687 193.074) rotate(90) scale(25.5901 57.9642)">
<stop stop-color="#739AFF"/>
<stop offset="1" stop-color="#6978FF" stop-opacity="0"/>
</radialGradient>
<linearGradient id="paint20_linear_5_7" x1="183.287" y1="196.865" x2="124.406" y2="183.442" gradientUnits="userSpaceOnUse">
<stop stop-color="#6C7BFF"/>
<stop offset="1" stop-color="#31B5FF"/>
</linearGradient>
<linearGradient id="paint21_linear_5_7" x1="297.671" y1="199.805" x2="227.587" y2="251.954" gradientUnits="userSpaceOnUse">
<stop stop-color="#3D79ED"/>
<stop offset="0.265625" stop-color="#3458C1" stop-opacity="0.7"/>
<stop offset="0.618879" stop-color="#3753B8" stop-opacity="0.7"/>
<stop offset="0.895833" stop-color="#5BB0FF" stop-opacity="0.9"/>
<stop offset="1" stop-color="#5BB0FF" stop-opacity="0.6"/>
</linearGradient>
<linearGradient id="paint22_linear_5_7" x1="150.821" y1="188.251" x2="170.959" y2="157.272" gradientUnits="userSpaceOnUse">
<stop offset="0.046875" stop-color="white"/>
<stop offset="0.427083" stop-color="#DFF4FF"/>
<stop offset="0.994792" stop-color="#0E42C8"/>
</linearGradient>
<linearGradient id="paint23_linear_5_7" x1="167.26" y1="233.15" x2="172.305" y2="170.094" gradientUnits="userSpaceOnUse">
<stop offset="0.280479" stop-color="white"/>
<stop offset="0.469567" stop-color="#FF79DA"/>
<stop offset="0.692708" stop-color="#3D3AE3" stop-opacity="0.9"/>
</linearGradient>
<linearGradient id="paint24_linear_5_7" x1="171.817" y1="230.251" x2="185.034" y2="162.538" gradientUnits="userSpaceOnUse">
<stop offset="0.161458" stop-color="white"/>
<stop offset="1" stop-color="white" stop-opacity="0"/>
</linearGradient>
<linearGradient id="paint25_linear_5_7" x1="174.458" y1="187.323" x2="167.585" y2="167.666" gradientUnits="userSpaceOnUse">
<stop stop-color="#81FF6C"/>
<stop offset="1" stop-color="#31F3FF"/>
</linearGradient>
<linearGradient id="paint26_linear_5_7" x1="166.513" y1="210.265" x2="193.593" y2="179.798" gradientUnits="userSpaceOnUse">
<stop offset="0.103809" stop-color="white"/>
<stop offset="0.436548" stop-color="#FFAACE" stop-opacity="0.8"/>
<stop offset="0.71875" stop-color="#6F97FF" stop-opacity="0.8"/>
</linearGradient>
<linearGradient id="paint27_linear_5_7" x1="183.934" y1="212.226" x2="193.808" y2="195.45" gradientUnits="userSpaceOnUse">
<stop stop-color="white"/>
<stop offset="0.591466" stop-color="#FF94D4"/>
<stop offset="1" stop-color="#C994FF"/>
</linearGradient>
<linearGradient id="paint28_linear_5_7" x1="187.284" y1="185.443" x2="176.099" y2="153.451" gradientUnits="userSpaceOnUse">
<stop stop-color="#81FF6C"/>
<stop offset="1" stop-color="#31F3FF"/>
</linearGradient>
<linearGradient id="paint29_linear_5_7" x1="175.604" y1="176.583" x2="198.921" y2="161.745" gradientUnits="userSpaceOnUse">
<stop stop-color="white"/>
<stop offset="1" stop-color="white" stop-opacity="0"/>
</linearGradient>
<linearGradient id="paint30_linear_5_7" x1="200.052" y1="190.797" x2="168.116" y2="181.783" gradientUnits="userSpaceOnUse">
<stop offset="0.149863" stop-color="white"/>
<stop offset="0.300261" stop-color="#8CFF31"/>
<stop offset="0.449118" stop-color="#45C3EB"/>
<stop offset="1" stop-color="#72E6FF"/>
</linearGradient>
<linearGradient id="paint31_linear_5_7" x1="169.012" y1="168.103" x2="170.847" y2="121.586" gradientUnits="userSpaceOnUse">
<stop stop-color="#6CFFED"/>
<stop offset="1" stop-color="#197F9F"/>
</linearGradient>
<linearGradient id="paint32_linear_5_7" x1="246.23" y1="230.848" x2="259.755" y2="174.675" gradientUnits="userSpaceOnUse">
<stop offset="0.464598" stop-color="white"/>
<stop offset="0.790313" stop-color="#6DF390"/>
<stop offset="1" stop-color="#21CAFF" stop-opacity="0.9"/>
</linearGradient>
<linearGradient id="paint33_linear_5_7" x1="173.711" y1="149.4" x2="167.739" y2="181.152" gradientUnits="userSpaceOnUse">
<stop offset="0.125" stop-color="white"/>
<stop offset="0.297772" stop-color="#8CFF31"/>
<stop offset="0.447917" stop-color="#5BF5FF"/>
</linearGradient>
<linearGradient id="paint34_linear_5_7" x1="143.456" y1="163.438" x2="163.004" y2="146.914" gradientUnits="userSpaceOnUse">
<stop stop-color="#DFF4FF"/>
<stop offset="0.994792" stop-color="#0E42C8"/>
</linearGradient>
</defs>
</svg>
